<svg aria-hidden="true" style="position: absolute; width: 0; height: 0; overflow: hidden;" version="1.1" xmlns="http://www.w3.org/2000/svg" xmlns:xlink="http://www.w3.org/1999/xlink">
<defs>
<symbol id="icon-inbox" viewBox="0 0 20 20">
<title>inbox</title>
<path d="M19.253 9.542c-0.388-0.416-2.265-2.271-3.122-3.118-0.263-0.259-0.639-0.424-1.033-0.424h-10.196c-0.394 0-0.77 0.165-1.033 0.424-0.858 0.847-2.734 2.701-3.122 3.118-0.485 0.521-0.723 0.902-0.624 1.449s0.466 2.654 0.556 3.074c0.088 0.419 0.684 0.935 1.24 0.935h16.162c0.556 0 1.152-0.516 1.241-0.935s0.457-2.527 0.556-3.074-0.139-0.929-0.625-1.449zM14.014 10.003c-0.101 0-0.193 0.052-0.238 0.133l-0.81 1.864h-5.932l-0.809-1.864c-0.045-0.081-0.137-0.133-0.238-0.133h-3.514l2.022-2.003h11.010l2.023 2.003h-3.514z"></path>
</symbol>
<symbol id="icon-magnifying-glass" viewBox="0 0 20 20">
<title>magnifying-glass</title>
<path d="M17.545 15.467l-3.779-3.779c0.57-0.935 0.898-2.035 0.898-3.21 0-3.417-2.961-6.377-6.378-6.377s-6.186 2.769-6.186 6.186c0 3.416 2.961 6.377 6.377 6.377 1.137 0 2.2-0.309 3.115-0.844l3.799 3.801c0.372 0.371 0.975 0.371 1.346 0l0.943-0.943c0.371-0.371 0.236-0.84-0.135-1.211zM4.004 8.287c0-2.366 1.917-4.283 4.282-4.283s4.474 2.107 4.474 4.474c0 2.365-1.918 4.283-4.283 4.283s-4.473-2.109-4.473-4.474z"></path>
</symbol>
</defs>
</svg>
