<?xml version="1.0" encoding="UTF-8" standalone="yes"?>
<svg xmlns="http://www.w3.org/2000/svg" viewBox="0 0 100 100" width="200" height="200" fill="#000000">
  <path d="M 46.96875 20.984375 C 30.97775 20.984375 17.96875 33.993375 17.96875 49.984375 C 17.96875 65.154375 29.679203 77.631047 44.533203 78.873047 C 44.666203 78.938047 44.80975 78.984375 44.96875 78.984375 L 81.96875 78.984375 C 82.52075 78.984375 82.96875 78.536375 82.96875 77.984375 C 82.96875 77.432375 82.52075 76.984375 81.96875 76.984375 L 57.53125 76.984375 C 68.31225 72.752375 75.96875 62.249375 75.96875 49.984375 C 75.96875 33.993375 62.95975 20.984375 46.96875 20.984375 z M 46.96875 22.984375 C 61.85675 22.984375 73.96875 35.096375 73.96875 49.984375 C 73.96875 64.872375 61.85675 76.984375 46.96875 76.984375 C 32.08075 76.984375 19.96875 64.872375 19.96875 49.984375 C 19.96875 35.096375 32.08075 22.984375 46.96875 22.984375 z M 46.625 24.539062 C 32.586 24.539062 21.164063 35.959047 21.164062 49.998047 C 21.164062 64.037047 32.586 75.460938 46.625 75.460938 C 59.717 75.461937 70.604219 65.654391 71.949219 52.650391 C 71.977219 52.376391 71.778906 52.130562 71.503906 52.101562 C 71.229906 52.078562 70.981125 52.271875 70.953125 52.546875 C 69.661125 65.039875 59.203 74.460938 46.625 74.460938 C 33.137 74.460938 22.164062 63.488 22.164062 50 C 22.164062 36.513 33.137 25.539062 46.625 25.539062 C 52.8 25.539062 58.695562 27.847109 63.226562 32.037109 C 63.428562 32.224109 63.744594 32.211766 63.933594 32.009766 C 64.121594 31.806766 64.10925 31.490734 63.90625 31.302734 C 59.19025 26.941734 53.053 24.539062 46.625 24.539062 z M 46.96875 27.984375 C 42.55775 27.984375 38.96875 31.573375 38.96875 35.984375 C 38.96875 36.039375 38.975563 36.093437 38.976562 36.148438 C 38.975563 36.181438 38.976422 36.211141 38.982422 36.244141 C 39.121422 40.534141 42.64575 43.984375 46.96875 43.984375 C 51.37975 43.983375 54.96875 40.395375 54.96875 35.984375 C 54.96875 31.573375 51.37975 27.984375 46.96875 27.984375 z M 46.96875 28.984375 C 50.66775 28.984375 53.698313 31.869812 53.945312 35.507812 C 49.654312 33.312812 44.348953 33.251172 40.001953 35.326172 C 40.334953 31.773172 43.33075 28.984375 46.96875 28.984375 z M 65.779297 33.445312 C 65.651797 33.434062 65.518609 33.471547 65.412109 33.560547 C 65.201109 33.738547 65.173562 34.053625 65.351562 34.265625 C 65.684563 34.659625 66.0055 35.065469 66.3125 35.480469 C 66.4105 35.612469 66.561844 35.683594 66.714844 35.683594 C 66.817844 35.683594 66.922719 35.651938 67.011719 35.585938 C 67.233719 35.421937 67.280234 35.108719 67.115234 34.886719 C 66.796234 34.454719 66.463187 34.032094 66.117188 33.621094 C 66.028687 33.516094 65.906797 33.456563 65.779297 33.445312 z M 46.917969 34.814453 C 49.314094 34.829078 51.705453 35.409547 53.814453 36.560547 C 53.853453 36.582547 53.8955 36.589609 53.9375 36.599609 C 53.6245 40.172609 50.62075 42.984375 46.96875 42.984375 C 43.27075 42.984375 40.241187 40.100844 39.992188 36.464844 C 42.119687 35.352344 44.521844 34.799828 46.917969 34.814453 z M 32.96875 41.984375 C 28.55775 41.984375 24.96875 45.573375 24.96875 49.984375 C 24.96875 54.395375 28.55775 57.984375 32.96875 57.984375 C 37.37975 57.984375 40.96875 54.395375 40.96875 49.984375 C 40.96875 45.573375 37.37975 41.984375 32.96875 41.984375 z M 59.96875 41.984375 C 55.55775 41.984375 51.96875 45.573375 51.96875 49.984375 C 51.96875 54.395375 55.55775 57.984375 59.96875 57.984375 C 64.37975 57.984375 67.96875 54.395375 67.96875 49.984375 C 67.96875 45.573375 64.37975 41.984375 59.96875 41.984375 z M 32.947266 42.984375 C 32.954266 42.984375 32.96175 42.984375 32.96875 42.984375 C 36.82875 42.984375 39.96875 46.124375 39.96875 49.984375 C 39.96875 53.844375 36.82775 56.984375 32.96875 56.984375 C 32.92175 56.984375 32.876078 56.977562 32.830078 56.976562 C 31.737078 54.889562 31.15625 52.542922 31.15625 50.169922 C 31.15625 47.748922 31.759484 45.348516 32.896484 43.228516 C 32.938484 43.150516 32.949266 43.067375 32.947266 42.984375 z M 59.96875 42.984375 C 60.07175 42.984375 60.171438 42.994047 60.273438 42.998047 C 60.282438 43.026047 60.285781 43.056031 60.300781 43.082031 C 61.471781 45.238031 62.091797 47.682344 62.091797 50.152344 C 62.091797 52.521344 61.516547 54.869937 60.435547 56.960938 C 60.281547 56.970937 60.127703 56.984375 59.970703 56.984375 C 56.109703 56.984375 52.96875 53.844375 52.96875 49.984375 C 52.96875 46.124375 56.10875 42.984375 59.96875 42.984375 z M 31.853516 43.080078 C 30.746516 45.264078 30.15625 47.705922 30.15625 50.169922 C 30.15625 52.483922 30.672391 54.776469 31.650391 56.855469 C 28.418391 56.237469 25.96875 53.393375 25.96875 49.984375 C 25.96875 46.505375 28.522516 43.617078 31.853516 43.080078 z M 61.449219 43.144531 C 64.599219 43.826531 66.96875 46.633375 66.96875 49.984375 C 66.96875 53.266375 64.695578 56.020437 61.642578 56.773438 C 62.591578 54.709437 63.089844 52.440297 63.089844 50.154297 C 63.089844 47.721297 62.519219 45.312531 61.449219 43.144531 z M 46.46875 47.984375 C 45.09075 47.984375 43.96875 49.106375 43.96875 50.484375 C 43.96875 51.862375 45.09075 52.984375 46.46875 52.984375 C 47.84675 52.984375 48.96875 51.862375 48.96875 50.484375 C 48.96875 49.106375 47.84675 47.984375 46.46875 47.984375 z M 46.46875 48.984375 C 47.29575 48.984375 47.96875 49.657375 47.96875 50.484375 C 47.96875 51.311375 47.29575 51.984375 46.46875 51.984375 C 45.64175 51.984375 44.96875 51.311375 44.96875 50.484375 C 44.96875 49.657375 45.64175 48.984375 46.46875 48.984375 z M 71.585938 49.498047 C 71.309938 49.498047 71.085938 49.722047 71.085938 49.998047 L 71.085938 50.126953 L 71.082031 50.361328 C 71.077031 50.638328 71.296266 50.868047 71.572266 50.873047 L 71.582031 50.873047 C 71.853031 50.873047 72.076031 50.656766 72.082031 50.384766 L 72.085938 50.123047 L 72.085938 49.998047 C 72.085938 49.722047 71.861938 49.498047 71.585938 49.498047 z M 46.96875 55.984375 C 42.55775 55.984375 38.96875 59.573375 38.96875 63.984375 C 38.96875 68.395375 42.55675 71.984375 46.96875 71.984375 C 51.37975 71.984375 54.96875 68.395375 54.96875 63.984375 C 54.96875 59.573375 51.37975 55.984375 46.96875 55.984375 z M 46.96875 56.984375 C 50.81975 56.984375 53.95475 60.109031 53.96875 63.957031 C 53.95975 63.961031 53.950406 63.962797 53.941406 63.966797 C 49.693406 66.275797 44.256141 66.289953 39.994141 64.001953 C 39.986141 63.997953 39.978703 63.996187 39.970703 63.992188 L 39.970703 63.984375 C 39.969703 60.124375 43.10875 56.984375 46.96875 56.984375 z M 53.867188 65.121094 C 53.320187 68.441094 50.43975 70.984375 46.96875 70.984375 C 43.50975 70.984375 40.635219 68.45825 40.074219 65.15625 C 42.199219 66.18925 44.556547 66.740234 46.935547 66.740234 C 49.341547 66.740234 51.723187 66.177094 53.867188 65.121094 z"/>
</svg>
